<svg width="512" height="512" viewBox="0 0 512 512" fill="none" xmlns="http://www.w3.org/2000/svg">
  <defs>
    <linearGradient id="bg" x1="0" y1="0" x2="512" y2="512">
      <stop stop-color="#080d1c"/>
      <stop offset=".5" stop-color="#0e1628"/>
      <stop offset="1" stop-color="#0a1020"/>
    </linearGradient>
    <radialGradient id="glow" cx="50%" cy="50%" r="50%">
      <stop stop-color="#38bdf8" stop-opacity=".18"/>
      <stop offset="1" stop-color="#38bdf8" stop-opacity="0"/>
    </radialGradient>
    <radialGradient id="core" cx="50%" cy="50%" r="50%">
      <stop stop-color="#fff" stop-opacity=".95"/>
      <stop offset=".3" stop-color="#bae6fd"/>
      <stop offset="1" stop-color="#38bdf8"/>
    </radialGradient>
  </defs>

  <rect width="512" height="512" rx="96" fill="url(#bg)"/>
  <rect width="512" height="512" rx="96" stroke="rgba(56,189,248,0.07)" stroke-width="3"/>

  <circle cx="256" cy="256" r="140" fill="url(#glow)"/>
  <circle cx="256" cy="256" r="144" stroke="#38bdf8" stroke-width="1" opacity=".07"/>

  <!-- Stream particles  clockwise, gap at upper-right -->
  <circle cx="112" cy="256" r="11" fill="#38bdf8"/>
  <circle cx="113" cy="291" r="10.6" fill="#38bdf8" opacity=".98"/>
  <circle cx="118" cy="325" r="9.8" fill="#38bdf8" opacity=".95"/>
  <circle cx="128" cy="357" r="9" fill="#38bdf8" opacity=".91"/>
  <circle cx="144" cy="385" r="8.2" fill="#38bdf8" opacity=".86"/>
  <circle cx="166" cy="407" r="7.4" fill="#38bdf8" opacity=".8"/>
  <circle cx="194" cy="422" r="6.8" fill="#38bdf8" opacity=".72"/>
  <circle cx="225" cy="430" r="6.2" fill="#38bdf8" opacity=".64"/>
  <circle cx="256" cy="432" r="5.6" fill="#38bdf8" opacity=".56"/>
  <circle cx="287" cy="426" r="5" fill="#38bdf8" opacity=".48"/>
  <circle cx="316" cy="414" r="4.4" fill="#38bdf8" opacity=".4"/>
  <circle cx="341" cy="397" r="3.8" fill="#38bdf8" opacity=".32"/>
  <circle cx="362" cy="374" r="3.3" fill="#38bdf8" opacity=".26"/>
  <circle cx="378" cy="348" r="2.8" fill="#38bdf8" opacity=".22"/>
  <circle cx="388" cy="320" r="2.4" fill="#38bdf8" opacity=".18"/>

  <circle cx="113" cy="221" r="10.3" fill="#38bdf8" opacity=".97"/>
  <circle cx="118" cy="187" r="9.5" fill="#38bdf8" opacity=".92"/>
  <circle cx="128" cy="155" r="8.6" fill="#38bdf8" opacity=".86"/>
  <circle cx="144" cy="127" r="7.7" fill="#38bdf8" opacity=".78"/>
  <circle cx="166" cy="105" r="6.8" fill="#38bdf8" opacity=".68"/>
  <circle cx="194" cy="90" r="6" fill="#38bdf8" opacity=".58"/>
  <circle cx="225" cy="82" r="5.2" fill="#38bdf8" opacity=".46"/>
  <circle cx="256" cy="80" r="4.5" fill="#38bdf8" opacity=".36"/>
  <circle cx="287" cy="86" r="3.8" fill="#38bdf8" opacity=".26"/>
  <circle cx="316" cy="98" r="3.2" fill="#38bdf8" opacity=".18"/>

  <!-- Filler particles -->
  <circle cx="114" cy="273" r="4.2" fill="#38bdf8" opacity=".7"/>
  <circle cx="114" cy="238" r="4.2" fill="#38bdf8" opacity=".7"/>
  <circle cx="115" cy="204" r="3.8" fill="#38bdf8" opacity=".65"/>
  <circle cx="122" cy="171" r="3.4" fill="#38bdf8" opacity=".6"/>
  <circle cx="135" cy="141" r="3" fill="#38bdf8" opacity=".54"/>
  <circle cx="154" cy="115" r="2.6" fill="#38bdf8" opacity=".46"/>
  <circle cx="115" cy="308" r="4" fill="#38bdf8" opacity=".68"/>
  <circle cx="122" cy="341" r="3.6" fill="#38bdf8" opacity=".62"/>
  <circle cx="135" cy="371" r="3.2" fill="#38bdf8" opacity=".56"/>
  <circle cx="154" cy="397" r="2.8" fill="#38bdf8" opacity=".5"/>
  <circle cx="180" cy="416" r="2.4" fill="#38bdf8" opacity=".44"/>
  <circle cx="210" cy="428" r="2" fill="#38bdf8" opacity=".38"/>
  <circle cx="272" cy="430" r="1.8" fill="#38bdf8" opacity=".32"/>
  <circle cx="302" cy="420" r="1.5" fill="#38bdf8" opacity=".26"/>
  <circle cx="329" cy="406" r="1.2" fill="#38bdf8" opacity=".22"/>

  <!-- Incoming particles near gap -->
  <circle cx="350" cy="120" r="2.4" fill="#38bdf8" opacity=".12"/>
  <circle cx="370" cy="148" r="2" fill="#38bdf8" opacity=".1"/>
  <circle cx="385" cy="178" r="1.6" fill="#38bdf8" opacity=".08"/>

  <!-- Inner spiral toward center -->
  <circle cx="152" cy="264" r="5.2" fill="#38bdf8" opacity=".35"/>
  <circle cx="176" cy="254" r="4.4" fill="#38bdf8" opacity=".3"/>
  <circle cx="200" cy="248" r="3.6" fill="#38bdf8" opacity=".24"/>
  <circle cx="222" cy="250" r="2.8" fill="#38bdf8" opacity=".18"/>

  <!-- Center core -->
  <circle cx="256" cy="256" r="30" fill="url(#core)"/>
  <circle cx="256" cy="256" r="15" fill="#fff" opacity=".45"/>
</svg>
